# xmcd
#
# Track frame offsets: 
#        150
#        22479
#        35927
#        51783
#        90155
#        121297
#        141795
#        164242
#
# Disc length: 2592 seconds
#
# Revision: 2
# Processed by: cddbd v1.5.2PL0 Copyright (c) Steve Scherf et al.
# Submitted via: ExactAudioCopy v0.95b4
#
DISCID=730a1e08
DTITLE=Carmen Maki - Blues Creation
DYEAR=1971
DGENRE=Rock
TTITLE0=Understand
TTITLE1=And You
TTITLE2=Lord, I Can't Be Going No More
TTITLE3=Empty Heart
TTITLE4=Motherless Child
TTITLE5=I Can't Live For Today
TTITLE6=Mean Old Boogie
TTITLE7=S. James Infirmary
EXTD=
EXTT0=
EXTT1=
EXTT2=
EXTT3=
EXTT4=
EXTT5=
EXTT6=
EXTT7=
PLAYORDER=
